<svg xmlns="http://www.w3.org/2000/svg" xmlns:svg="http://www.w3.org/2000/svg" id="svg2" width="14" height="14" version="1.1" viewBox="0 0 14 14"><metadata id="metadata7"/><g id="layer1" transform="translate(0,-1038.3622)"><path style="fill:none;fill-opacity:0;fill-rule:evenodd;stroke:#f6f6f6;stroke-width:2;stroke-linecap:round;stroke-linejoin:miter;stroke-miterlimit:4;stroke-dasharray:none;stroke-opacity:1" id="path4157" d="m 2,1049.3622 c 8,0 9,0 9,-9"/><path style="opacity:1;fill:#68d0ea;fill-opacity:1;stroke:none;stroke-width:2;stroke-linecap:round;stroke-linejoin:round;stroke-miterlimit:4;stroke-dasharray:none;stroke-dashoffset:0;stroke-opacity:1" id="circle4176" d="M 11 4 A 2 2 0 0 0 9 6 A 2 2 0 0 0 11 8 A 2 2 0 0 0 13 6 A 2 2 0 0 0 11 4 z M 6 9 A 2 2 0 0 0 4 11 A 2 2 0 0 0 6 13 A 2 2 0 0 0 8 11 A 2 2 0 0 0 6 9 z" transform="translate(0,1038.3622)"/></g></svg>