<svg xmlns="http://www.w3.org/2000/svg" xmlns:svg="http://www.w3.org/2000/svg" id="svg2" width="16" height="16" version="1.1" viewBox="0 0 16 16"><metadata id="metadata7"/><g id="layer1" transform="translate(0,-1036.3622)"><path style="opacity:1;fill:#e1cb50;fill-opacity:.98431373;stroke:none;stroke-width:2;stroke-linecap:round;stroke-linejoin:miter;stroke-miterlimit:4;stroke-dasharray:none;stroke-dashoffset:0;stroke-opacity:1" id="rect4136" d="M 1 1 L 1 15 L 2.1660156 15 L 2.1660156 13 L 4 13 L 4 15 L 12 15 L 12 13 L 14 13 L 14 15 L 15 15 L 15 1 L 14 1 L 14 3 L 12 3 L 12 1 L 4 1 L 4 3 L 2.1660156 3 L 2.1660156 1 L 1 1 z M 2.1660156 5 L 4 5 L 4 7 L 2.1660156 7 L 2.1660156 5 z M 8 5 A 1 1 0 0 1 9 6 A 1 1 0 0 1 8.8339844 6.5507812 L 10.060547 9.0039062 A 1 1 0 0 1 11 10 A 1 1 0 0 1 10 11 A 1 1 0 0 1 9 10 A 1 1 0 0 1 9.1660156 9.4492188 L 8 7.1171875 L 6.8339844 9.4492188 A 1 1 0 0 1 7 10 A 1 1 0 0 1 6 11 A 1 1 0 0 1 5 10 A 1 1 0 0 1 5.9414062 9.0019531 L 7.1660156 6.5507812 A 1 1 0 0 1 7 6 A 1 1 0 0 1 8 5 z M 12 5 L 14 5 L 14 7 L 12 7 L 12 5 z M 2.1660156 9 L 4 9 L 4 11 L 2.1660156 11 L 2.1660156 9 z M 12 9 L 14 9 L 14 11 L 12 11 L 12 9 z" transform="translate(0,1036.3622)"/></g></svg>