<svg xmlns="http://www.w3.org/2000/svg" xmlns:svg="http://www.w3.org/2000/svg" id="svg2" width="16" height="16" version="1.1" viewBox="0 0 16 16"><metadata id="metadata7"/><g id="layer1" transform="translate(0,-1036.3622)"><path style="opacity:1;fill:#e0e0e0;fill-opacity:1;stroke:none;stroke-width:2;stroke-linecap:round;stroke-linejoin:miter;stroke-miterlimit:4;stroke-dasharray:none;stroke-dashoffset:0;stroke-opacity:1" id="path4140" d="M 8 2 A 6 6 0 0 0 2 8 A 6 6 0 0 0 8 14 A 6 6 0 0 0 14 8 A 6 6 0 0 0 8 2 z M 8 3 A 1 1 0 0 1 9 4 A 1 1 0 0 1 8 5 A 1 1 0 0 1 7 4 A 1 1 0 0 1 8 3 z M 11.441406 5 A 1 1 0 0 1 12.330078 5.5 A 1 1 0 0 1 11.964844 6.8652344 A 1 1 0 0 1 10.597656 6.5 A 1 1 0 0 1 10.964844 5.1347656 A 1 1 0 0 1 11.441406 5 z M 4.4882812 5.0019531 A 1 1 0 0 1 5.0351562 5.1347656 A 1 1 0 0 1 5.4023438 6.5 A 1 1 0 0 1 4.0351562 6.8652344 A 1 1 0 0 1 3.6699219 5.5 A 1 1 0 0 1 4.4882812 5.0019531 z M 4.5117188 9 A 1 1 0 0 1 5.4023438 9.5 A 1 1 0 0 1 5.0351562 10.865234 A 1 1 0 0 1 3.6699219 10.5 A 1 1 0 0 1 4.0351562 9.1347656 A 1 1 0 0 1 4.5117188 9 z M 11.416016 9.0019531 A 1 1 0 0 1 11.964844 9.1347656 A 1 1 0 0 1 12.330078 10.5 A 1 1 0 0 1 10.964844 10.865234 A 1 1 0 0 1 10.597656 9.5 A 1 1 0 0 1 11.416016 9.0019531 z M 8 11 A 1 1 0 0 1 9 12 A 1 1 0 0 1 8 13 A 1 1 0 0 1 7 12 A 1 1 0 0 1 8 11 z" transform="translate(0,1036.3622)"/><path style="opacity:1;fill:#e0e0e0;fill-opacity:1;stroke:none;stroke-width:2;stroke-linecap:round;stroke-linejoin:miter;stroke-miterlimit:4;stroke-dasharray:none;stroke-dashoffset:0;stroke-opacity:1" id="rect4202" d="M 13 8 L 13 14 A 1 1 0 0 0 14 15 L 15 15 L 15 14 L 14 14 L 14 13 L 14 8 L 13 8 z" transform="translate(0,1036.3622)"/><path style="opacity:1;fill:#e0e0e0;fill-opacity:1;stroke:none;stroke-width:2;stroke-linecap:round;stroke-linejoin:miter;stroke-miterlimit:4;stroke-dasharray:none;stroke-dashoffset:0;stroke-opacity:1" id="rect4215" d="M 14 13.5 L 14 14 L 14.5 14 A 0.5 0.4999913 0 0 1 14 13.5 z" transform="translate(0,1036.3622)"/><rect style="opacity:1;fill:#e0e0e0;fill-opacity:1;stroke:none;stroke-width:2;stroke-linecap:round;stroke-linejoin:round;stroke-miterlimit:4;stroke-dasharray:none;stroke-dashoffset:0;stroke-opacity:.99607843" id="rect4137" width="1" height="3" x="12" y="1047.362"/><path id="path4139" d="M 13 8 L 13 14 A 1 1 0 0 0 14 15 L 15 15 L 15 14 L 14 14 L 14 13 L 14 8 L 13 8 z" transform="translate(0,1036.3622)" style="opacity:1;fill:#e0e0e0;fill-opacity:1;stroke:none;stroke-width:2;stroke-linecap:round;stroke-linejoin:miter;stroke-miterlimit:4;stroke-dasharray:none;stroke-dashoffset:0;stroke-opacity:1"/><rect id="rect4141" width="1" height="2" x="14" y="1050.362" style="opacity:1;fill:#e0e0e0;fill-opacity:1;stroke:none;stroke-width:2;stroke-linecap:round;stroke-linejoin:round;stroke-miterlimit:4;stroke-dasharray:none;stroke-dashoffset:0;stroke-opacity:.99607843"/><path style="opacity:1;fill:#e0e0e0;fill-opacity:1;stroke:none;stroke-width:2;stroke-linecap:round;stroke-linejoin:round;stroke-miterlimit:4;stroke-dasharray:none;stroke-dashoffset:0;stroke-opacity:.99607843" id="path4145" d="m 14,1052.3622 a 2,2 0 0 1 -1.732051,-1 2,2 0 0 1 0,-2 2,2 0 0 1 1.732051,-1"/></g></svg>