<svg xmlns="http://www.w3.org/2000/svg" xmlns:svg="http://www.w3.org/2000/svg" id="svg2" width="16" height="16" version="1.1" viewBox="0 0 16 16"><metadata id="metadata7"/><g id="layer1" transform="translate(0,-1036.3622)"><path style="opacity:1;fill:#e0e0e0;fill-opacity:.99607843;stroke:none;stroke-width:3;stroke-linecap:round;stroke-linejoin:miter;stroke-miterlimit:4;stroke-dasharray:none;stroke-dashoffset:0;stroke-opacity:1" id="rect4138" d="M 1 1 L 1 15 L 9.2578125 15 L 8.4355469 13 L 3 13 L 3 11 L 7.6113281 11 L 6.7890625 9 L 3 9 L 3 7 L 6.8867188 7 A 1.50015 1.50015 0 0 1 7.984375 6.5019531 L 7.984375 6.5 A 1.50015 1.50015 0 0 1 8.5703125 6.6113281 L 9.515625 7 L 10 7 L 10 7.1992188 L 12 8.0214844 L 12 1 L 1 1 z M 3 3 L 10 3 L 10 5 L 3 5 L 3 3 z M 10.755859 10.755859 L 11.279297 12.029297 A 1.50015 1.50015 0 0 1 11.759766 11.759766 A 1.50015 1.50015 0 0 1 12 11.320312 L 12 11.269531 L 10.755859 10.755859 z" transform="translate(0,1036.3622)"/><path style="opacity:1;fill:#e0e0e0;fill-opacity:1;stroke:none;stroke-width:1;stroke-linecap:round;stroke-linejoin:round;stroke-miterlimit:4;stroke-dasharray:none;stroke-dashoffset:0;stroke-opacity:1" id="rect4163" d="m 16,1047.6532 -8,-3.291 3.290998,8 0.947104,-2.8201 1.8836,1.8835 0.941801,-0.9418 -1.8836,-1.8835 z"/></g></svg>