<svg xmlns="http://www.w3.org/2000/svg" xmlns:svg="http://www.w3.org/2000/svg" id="svg2" width="16" height="16" version="1.1" viewBox="0 0 16 16"><metadata id="metadata7"/><g id="layer1" transform="translate(0,-1036.3622)"><path style="fill:#e0e0e0;fill-opacity:1;stroke:none;stroke-width:3;stroke-linecap:round;stroke-linejoin:miter;stroke-miterlimit:4;stroke-dasharray:none;stroke-opacity:1" id="rect4137" d="M 5 1 L 5 3 L 7 3 L 7 13 L 5 13 L 5 15 L 7 15 A 1 1 0 0 0 8 14 A 1 1 0 0 0 9 15 L 11 15 L 11 13 L 9 13 L 9 3 L 11 3 L 11 1 L 9 1 A 1 1 0 0 0 8 2 A 1 1 0 0 0 7 1 L 5 1 z" transform="translate(0,1036.3622)"/></g></svg>