<svg xmlns="http://www.w3.org/2000/svg" xmlns:svg="http://www.w3.org/2000/svg" id="svg2" width="16" height="16" version="1.1" viewBox="0 0 16 16"><metadata id="metadata7"/><g id="layer1" transform="translate(0,-1036.3622)"><path style="opacity:1;fill:#e0e0e0;fill-opacity:.99607843;stroke:none;stroke-width:3;stroke-linecap:round;stroke-linejoin:miter;stroke-miterlimit:4;stroke-dasharray:none;stroke-dashoffset:0;stroke-opacity:1" id="path4138" d="M 9 2 A 6.0000172 6.0000172 0 0 0 3 8 L 5 8 A 4 4 0 0 1 9 4 A 4 4 0 0 1 13 8 A 4 4 0 0 1 9 12 L 9 14 A 6.0000172 6.0000172 0 0 0 15 8 A 6.0000172 6.0000172 0 0 0 9 2 z" transform="translate(0,1036.3622)"/><path style="opacity:1;fill:#e0e0e0;fill-opacity:.99607843;stroke:none;stroke-width:3;stroke-linecap:round;stroke-linejoin:miter;stroke-miterlimit:4;stroke-dasharray:none;stroke-dashoffset:0;stroke-opacity:1" id="path4142" d="m 4.1180339,1048.2987 -1.6770509,-0.9683 -1.67705101,-0.9682 1.67705101,-0.9683 1.6770511,-0.9682 -1e-7,1.9365 z" transform="matrix(0,-1.1925797,1.5491989,0,-1617.0232,1049.2732)"/><rect style="opacity:1;fill:#e0e0e0;fill-opacity:.99607843;stroke:none;stroke-width:3;stroke-linecap:round;stroke-linejoin:miter;stroke-miterlimit:4;stroke-dasharray:none;stroke-dashoffset:0;stroke-opacity:1" id="rect4144" width="2" height="4" x="8" y="1041.362"/><rect id="rect4146" width="4" height="2" x="8" y="1043.362" style="opacity:1;fill:#e0e0e0;fill-opacity:.99607843;stroke:none;stroke-width:3;stroke-linecap:round;stroke-linejoin:miter;stroke-miterlimit:4;stroke-dasharray:none;stroke-dashoffset:0;stroke-opacity:1"/></g></svg>