<svg xmlns="http://www.w3.org/2000/svg" xmlns:svg="http://www.w3.org/2000/svg" id="svg2" width="14" height="14" version="1.1" viewBox="0 0 14 14"><metadata id="metadata7"/><g id="layer1" transform="translate(0,-1038.3622)"><path style="color:#000;font-style:normal;font-variant:normal;font-weight:400;font-stretch:normal;font-size:medium;line-height:normal;font-family:sans-serif;text-indent:0;text-align:start;text-decoration:none;text-decoration-line:none;text-decoration-style:solid;text-decoration-color:#000;letter-spacing:normal;word-spacing:normal;text-transform:none;direction:ltr;block-progression:tb;writing-mode:lr-tb;baseline-shift:baseline;text-anchor:start;white-space:normal;clip-rule:nonzero;display:inline;overflow:visible;visibility:visible;opacity:1;isolation:auto;mix-blend-mode:normal;color-interpolation:sRGB;color-interpolation-filters:linearRGB;solid-color:#000;solid-opacity:1;fill:#b8ea68;fill-opacity:1;fill-rule:evenodd;stroke:none;stroke-width:2;stroke-linecap:butt;stroke-linejoin:round;stroke-miterlimit:4;stroke-dasharray:none;stroke-dashoffset:0;stroke-opacity:1;color-rendering:auto;image-rendering:auto;shape-rendering:auto;text-rendering:auto;enable-background:accumulate" id="path4144" d="M 4 1 C 3.4477381 1.0001 3.0000552 1.4477 3 2 L 3 3 L 1 3 L 1 5 L 3 5 L 3 9 L 1 9 L 1 11 L 3 11 L 3 12 C 3.0000552 12.5523 3.4477381 12.9999 4 13 L 10 13 C 10.552262 12.9999 10.999945 12.5523 11 12 L 11 8 L 13 8 L 13 6 L 11 6 L 11 2 C 10.999945 1.4477 10.552262 1.0001 10 1 L 4 1 z M 5 4 L 9 7 L 5 10 L 5 4 z" transform="translate(0,1038.3622)"/></g></svg>