<svg xmlns="http://www.w3.org/2000/svg" xmlns:svg="http://www.w3.org/2000/svg" id="svg2" width="16" height="16" version="1.1" viewBox="0 0 16 16"><metadata id="metadata7"/><g id="layer1" transform="translate(0,-1036.3622)"><g id="layer1-0" transform="translate(-1.5201563e-4,0)" style="fill:#a5b7f9;fill-opacity:.98823529"><path id="path4165" d="M 8,2 C 5.4432667,2 2.2093331,3.9476781 1.0449219,7.7050781 a 1.0001,1.0001 0 0 0 -0.00586,0.5703125 C 2.1634651,12.210791 5.5,14 8,14 c 2.5,0 5.836534,-1.789209 6.960938,-5.7246094 a 1.0001,1.0001 0 0 0 0,-0.5527344 C 13.86059,3.9350563 10.554367,2 8,2 Z M 8,4 A 4,4 0 0 1 12,8 4,4 0 0 1 8,12 4,4 0 0 1 4,8 4,4 0 0 1 8,4 Z" transform="translate(0,1036.3622)" style="color:#000;font-style:normal;font-variant:normal;font-weight:400;font-stretch:normal;font-size:medium;line-height:normal;font-family:sans-serif;text-indent:0;text-align:start;text-decoration:none;text-decoration-line:none;text-decoration-style:solid;text-decoration-color:#000;letter-spacing:normal;word-spacing:normal;text-transform:none;direction:ltr;block-progression:tb;writing-mode:lr-tb;baseline-shift:baseline;text-anchor:start;white-space:normal;clip-rule:nonzero;display:inline;overflow:visible;visibility:visible;opacity:1;isolation:auto;mix-blend-mode:normal;color-interpolation:sRGB;color-interpolation-filters:linearRGB;solid-color:#000;solid-opacity:1;fill:#a5b7f9;fill-opacity:.98823529;fill-rule:evenodd;stroke:none;stroke-width:2;stroke-linecap:butt;stroke-linejoin:round;stroke-miterlimit:4;stroke-dasharray:none;stroke-dashoffset:0;stroke-opacity:1;color-rendering:auto;image-rendering:auto;shape-rendering:auto;text-rendering:auto;enable-background:accumulate"/><circle style="opacity:1;fill:#a5b7f9;fill-opacity:.98823529;stroke:none;stroke-width:2;stroke-linecap:round;stroke-linejoin:round;stroke-miterlimit:4;stroke-dasharray:none;stroke-dashoffset:0;stroke-opacity:1" id="circle4192" cx="8" cy="1044.362" r="2"/></g><path style="opacity:1;fill:#a5b7f9;fill-opacity:.98823529;stroke:none;stroke-width:2;stroke-linecap:butt;stroke-linejoin:bevel;stroke-miterlimit:4;stroke-dasharray:none;stroke-dashoffset:0;stroke-opacity:.99607843" id="rect4176" d="M 1 1 L 1 4 L 2 4 L 2 2 L 4 2 L 4 1 L 1 1 z M 12 1 L 12 2 L 14 2 L 14 4 L 15 4 L 15 1 L 12 1 z M 1 12 L 1 15 L 4 15 L 4 14 L 2 14 L 2 12 L 1 12 z M 14 12 L 14 14 L 12 14 L 12 15 L 15 15 L 15 12 L 14 12 z" transform="translate(0,1036.3622)"/></g></svg>