<svg xmlns="http://www.w3.org/2000/svg" xmlns:svg="http://www.w3.org/2000/svg" id="svg2" width="16" height="16" version="1.1" viewBox="0 0 16 16"><metadata id="metadata7"/><g id="layer1" transform="translate(0,-1036.3622)"><path style="opacity:1;fill:#e0e0e0;fill-opacity:1;stroke:none;stroke-width:3;stroke-linecap:round;stroke-linejoin:round;stroke-miterlimit:4;stroke-dasharray:none;stroke-dashoffset:0;stroke-opacity:1" id="rect4139" d="M 2 8 L 2 15 L 14 15 L 14 8 L 2 8 z M 7 10 L 9 10 L 9 13 L 7 13 L 7 10 z" transform="translate(0,1036.3622)"/><path style="opacity:1;fill:#e0e0e0;fill-opacity:1;stroke:none;stroke-width:3;stroke-linecap:round;stroke-linejoin:round;stroke-miterlimit:4;stroke-dasharray:none;stroke-dashoffset:0;stroke-opacity:1" id="path4141" d="M 8,1 C 7.1226197,1.001545 6.2610925,1.233935 5.5019531,1.6738281 l 1,1.7324219 C 6.9570181,3.1417636 7.4736593,3.0016575 8,3 c 1.6568542,0 3,1.3431458 3,3 l 2,0 C 13,3.2385763 10.761424,1 8,1 Z" transform="translate(0,1036.3622)"/><rect id="rect4147" width="2" height="2" x="11" y="1042.362" style="opacity:1;fill:#e0e0e0;fill-opacity:1;stroke:none;stroke-width:3;stroke-linecap:round;stroke-linejoin:round;stroke-miterlimit:4;stroke-dasharray:none;stroke-dashoffset:0;stroke-opacity:1"/></g></svg>