<svg xmlns="http://www.w3.org/2000/svg" xmlns:svg="http://www.w3.org/2000/svg" id="svg2" width="14" height="14" version="1.1" viewBox="0 0 14 14"><metadata id="metadata7"/><g id="layer1" transform="translate(0,-1038.3622)"><path style="opacity:1;fill:#b8ea68;fill-opacity:1;stroke:none;stroke-width:2;stroke-linecap:round;stroke-linejoin:round;stroke-miterlimit:4;stroke-dasharray:none;stroke-dashoffset:0;stroke-opacity:1" id="rect4147" d="M 2,0 C 0.8954305,0 0,0.8954305 0,2 l 0,10 c 0,1.104569 0.8954305,2 2,2 l 10,0 c 1.104569,0 2,-0.895431 2,-2 L 14,2 C 14,0.8954305 13.104569,0 12,0 Z M 8,0 11,3 8,6 8,4 3,4 3,2 8,2 Z M 4.34375,5.6289062 4.8574219,6.4863281 7,10.056641 9.1425781,6.4863281 9.65625,5.6289062 l 1.714844,1.0292969 -0.513672,0.8574219 -3.0000001,5 c -0.3885014,0.647055 -1.3263424,0.647055 -1.7148438,0 l -3,-5 -0.5136719,-0.8574219 z" transform="translate(0,1038.3622)"/><path style="color:#000;font-style:normal;font-variant:normal;font-weight:400;font-stretch:normal;font-size:medium;line-height:normal;font-family:sans-serif;text-indent:0;text-align:start;text-decoration:none;text-decoration-line:none;text-decoration-style:solid;text-decoration-color:#000;letter-spacing:normal;word-spacing:normal;text-transform:none;direction:ltr;block-progression:tb;writing-mode:lr-tb;baseline-shift:baseline;text-anchor:start;white-space:normal;clip-rule:nonzero;display:inline;overflow:visible;visibility:visible;opacity:1;isolation:auto;mix-blend-mode:normal;color-interpolation:sRGB;color-interpolation-filters:linearRGB;solid-color:#000;solid-opacity:1;fill:#000;fill-opacity:1;fill-rule:evenodd;stroke:none;stroke-width:2;stroke-linecap:square;stroke-linejoin:round;stroke-miterlimit:4;stroke-dasharray:none;stroke-dashoffset:0;stroke-opacity:1;color-rendering:auto;image-rendering:auto;shape-rendering:auto;text-rendering:auto;enable-background:accumulate" id="path4209" d="m 23,0 0,2 -5,0 0,2 5,0 0,2 3,-3 z m -3.65625,5.6289062 -1.714844,1.0292969 0.513672,0.8574219 3,5 c 0.388501,0.647056 1.326343,0.647056 1.714844,0 l 3,-5 L 26.371094,6.6582031 24.65625,5.6289062 24.142578,6.4863281 22,10.056641 19.857422,6.4863281 Z" transform="translate(0,1038.3622)"/></g></svg>