<svg xmlns="http://www.w3.org/2000/svg" xmlns:svg="http://www.w3.org/2000/svg" id="svg2" width="16" height="16" version="1.1" viewBox="0 0 16 16"><metadata id="metadata7"/><g id="layer1" transform="translate(0,-1036.3622)"><path style="opacity:1;fill:#ffd684;fill-opacity:1;stroke:none;stroke-width:2;stroke-linecap:round;stroke-linejoin:miter;stroke-miterlimit:4;stroke-dasharray:none;stroke-dashoffset:0;stroke-opacity:1" id="path4139" d="m 10.477991,1037.3625 a 2.4664114,2.4663006 0 0 0 -1.780445,0.7205 2.4664114,2.4663006 0 0 0 -0.3140829,3.1041 l -3.5589636,3.5608 a 2.4664114,2.4663006 0 0 0 -3.1022911,0.3121 2.4664114,2.4663006 0 0 0 0,3.4876 2.4664114,2.4663006 0 0 0 1.3969945,0.6955 2.4664198,2.4663006 0 0 0 0.6956069,1.397 2.4664198,2.4663006 0 0 0 3.4876687,0 2.4664198,2.4663006 0 0 0 0.3140829,-3.1041 l 3.5608896,-3.5608 a 2.4664198,2.4663006 0 0 0 3.100365,-0.3102 2.4664198,2.4663006 0 0 0 0,-3.4875 2.4664198,2.4663006 0 0 0 -1.396994,-0.6974 2.4664114,2.4663006 0 0 0 -0.695607,-1.3971 2.4664114,2.4663006 0 0 0 -1.707224,-0.7205 z"/></g></svg>