<svg xmlns="http://www.w3.org/2000/svg" xmlns:svg="http://www.w3.org/2000/svg" id="svg2" width="16" height="16" version="1.1" viewBox="0 0 16 16"><metadata id="metadata7"/><g id="layer1" transform="translate(0,-1036.3622)"><path style="opacity:1;fill:#84ffb1;fill-opacity:1;stroke:none;stroke-width:3;stroke-linecap:round;stroke-linejoin:round;stroke-miterlimit:4;stroke-dasharray:none;stroke-dashoffset:0;stroke-opacity:1" id="path4137" d="M 8 1 A 7 7 0 0 0 1 8 A 7 7 0 0 0 8 15 A 7 7 0 0 0 15 8 A 7 7 0 0 0 8 1 z M 11.181641 4.9296875 L 12.595703 6.34375 L 8.3535156 10.585938 L 7.6464844 11.292969 L 6.9394531 12 L 3.4042969 8.4648438 L 4.8183594 7.0507812 L 6.9394531 9.171875 L 11.181641 4.9296875 z" transform="translate(0,1036.3622)"/><path id="path4156" d="M 8 1 A 7 7 0 0 0 1 8 A 7 7 0 0 0 8 15 A 7 7 0 0 0 15 8 A 7 7 0 0 0 8 1 z M 11.181641 4.9296875 L 12.595703 6.34375 L 8.3535156 10.585938 L 7.6464844 11.292969 L 6.9394531 12 L 3.4042969 8.4648438 L 4.8183594 7.0507812 L 6.9394531 9.171875 L 11.181641 4.9296875 z" transform="translate(0,1036.3622)" style="opacity:1;fill:#000;fill-opacity:.23529412;stroke:none;stroke-width:3;stroke-linecap:round;stroke-linejoin:round;stroke-miterlimit:4;stroke-dasharray:none;stroke-dashoffset:0;stroke-opacity:1"/></g></svg>