<svg xmlns="http://www.w3.org/2000/svg" xmlns:svg="http://www.w3.org/2000/svg" id="svg2" width="16" height="16" version="1.1" viewBox="0 0 16 16"><metadata id="metadata7"/><g id="layer1" transform="translate(0,-1036.3622)"><path style="fill:#e0e0e0;fill-opacity:.99607843;stroke:none;stroke-width:4;stroke-linecap:round;stroke-linejoin:miter;stroke-miterlimit:4;stroke-dasharray:none;stroke-opacity:1" id="rect4352" d="m 2.979185,1050.6622 4.2426407,-4.2 -1.4142136,-1.4 -4.2426407,4.1999 1.4142136,1.4001 z m 5.6568542,0 3.1819808,0.35 3.18198,0.35 -0.353553,-3.15 -0.353554,-3.15 -2.12132,2.1 -2.828427,-2.8 -1.4142136,-1.4 -4.9497474,-4.9 -1.4142136,1.4001 4.9497475,4.8999 1.4142135,1.4 2.8284276,2.7999 -2.1213208,2.1001 z m 1.4142138,-7 2.12132,-2.1 2.12132,2.1 0.353554,-3.15 0.353553,-3.15 -3.18198,0.35 -3.1819808,0.35 2.1213208,2.1001 -2.1213208,2.0999 1.4142138,1.4 z"/></g></svg>