<svg xmlns="http://www.w3.org/2000/svg" xmlns:svg="http://www.w3.org/2000/svg" id="svg2" width="16" height="16" version="1.1" viewBox="0 0 16 16"><metadata id="metadata7"/><g id="layer1" transform="translate(0,-1036.3622)"><path style="opacity:1;fill:#a5efac;fill-opacity:1;stroke:none;stroke-width:2;stroke-linecap:round;stroke-linejoin:miter;stroke-miterlimit:4;stroke-dasharray:none;stroke-dashoffset:0;stroke-opacity:1" id="rect4140" d="M 3,1 C 1.8954305,1 1,1.8954305 1,3 l 0,10 c 0,1.104569 0.8954305,2 2,2 l 10,0 c 1.104569,0 2,-0.895431 2,-2 L 15,3 C 15,1.8954305 14.104569,1 13,1 Z m 0,2 10,0 0,10 -10,0 z" transform="translate(0,1036.3622)"/><path id="path4161" d="m 6,1040.3622 2,2 2,-2 z m -2,2 0,4 2,-2 z m 8,0 -2,2 2,2 z m -4,4 -2,2 4,0 z" style="fill:#a5efac;fill-opacity:1;stroke:none;stroke-width:2;stroke-linecap:round;stroke-linejoin:round;stroke-miterlimit:4;stroke-dasharray:none;stroke-opacity:1"/></g></svg>