<svg xmlns="http://www.w3.org/2000/svg" xmlns:svg="http://www.w3.org/2000/svg" id="svg2" width="16" height="16" version="1.1" viewBox="0 0 16 16"><metadata id="metadata7"/><g id="layer1" transform="translate(0,-1036.3622)"><path style="opacity:1;fill:#e0e0e0;fill-opacity:1;stroke:none;stroke-width:2;stroke-linecap:round;stroke-linejoin:round;stroke-miterlimit:4;stroke-dasharray:none;stroke-dashoffset:0;stroke-opacity:1" id="rect4136" d="M 1 7 L 1 13 C 1 14.104569 1.8954305 15 3 15 L 15 15 L 15 7 L 1 7 z M 5 9 L 11 9 L 8 13 L 5 9 z" transform="translate(0,1036.3622)"/><path style="opacity:1;fill:#e0e0e0;fill-opacity:1;stroke:none;stroke-width:2;stroke-linecap:round;stroke-linejoin:round;stroke-miterlimit:4;stroke-dasharray:none;stroke-dashoffset:0;stroke-opacity:1" id="rect4138" d="M 0.7112932,1040.3831 1,1042.3622 l 2.2438279,-0.3273 -0.8182578,-1.9018 -1.7142769,0.25 z m 3.6933293,-0.5387 0.8182578,1.9018 1.9790524,-0.2887 -0.8182579,-1.9018 -1.9790523,0.2887 z m 3.9581047,-0.5775 0.8182579,1.9018 1.9790519,-0.2887 -0.818257,-1.9018 -1.9790528,0.2887 z m 3.9581048,-0.5774 0.818258,1.9018 1.714277,-0.25 -0.288707,-1.9791 -2.243828,0.3273 z"/></g></svg>