<svg xmlns="http://www.w3.org/2000/svg" xmlns:svg="http://www.w3.org/2000/svg" id="svg2" width="16" height="16" version="1.1" viewBox="0 0 16 16"><metadata id="metadata7"/><g id="layer1" transform="translate(0,-1036.3622)"><path style="opacity:1;fill:#a5efac;fill-opacity:1;stroke:none;stroke-width:2;stroke-linecap:round;stroke-linejoin:round;stroke-miterlimit:4;stroke-dasharray:none;stroke-dashoffset:0;stroke-opacity:1" id="rect4244" d="M 6 7 A 0.9999826 0.9999826 0 0 0 5 8 A 0.9999826 0.9999826 0 0 0 6 9 L 10 9 A 0.9999826 0.9999826 0 0 0 11 8 A 0.9999826 0.9999826 0 0 0 10 7 L 6 7 z" transform="translate(0,1036.3622)"/><path style="opacity:1;fill:#a5efac;fill-opacity:1;stroke:none;stroke-width:2;stroke-linecap:round;stroke-linejoin:round;stroke-miterlimit:4;stroke-dasharray:none;stroke-dashoffset:0;stroke-opacity:1" id="path4225" d="M 6 3 A 5 5 0 0 0 1.6699219 5.5 A 5 5 0 0 0 1.6699219 10.5 A 5 5 0 0 0 6 13 L 7 13 L 7 11 L 6 11 A 3 3 0 0 1 3 8 A 3 3 0 0 1 6 5 L 7 5 L 7 3 L 6 3 z M 9 3 L 9 5 L 10 5 A 3 3 0 0 1 13 8 A 3 3 0 0 1 10 11 L 9 11 L 9 13 L 10 13 A 5 5 0 0 0 14.330078 10.5 A 5 5 0 0 0 14.330078 5.5 A 5 5 0 0 0 10 3 L 9 3 z" transform="translate(0,1036.3622)"/></g></svg>