<svg xmlns="http://www.w3.org/2000/svg" xmlns:svg="http://www.w3.org/2000/svg" id="svg2" width="14" height="14" version="1.1" viewBox="0 0 14 14"><metadata id="metadata7"/><g id="layer1" transform="translate(0,-1038.3622)"><rect style="opacity:1;fill:#f6f6f6;fill-opacity:1;stroke:none;stroke-width:2;stroke-linecap:round;stroke-linejoin:round;stroke-miterlimit:4;stroke-dasharray:none;stroke-dashoffset:0;stroke-opacity:1" id="rect4157" width="2" height="4" x="6" y="1042.362"/><rect id="rect4159" width="4" height="2" x="6" y="1044.362" style="opacity:1;fill:#f6f6f6;fill-opacity:1;stroke:none;stroke-width:2;stroke-linecap:round;stroke-linejoin:round;stroke-miterlimit:4;stroke-dasharray:none;stroke-dashoffset:0;stroke-opacity:1"/><path style="opacity:1;fill:#f6f6f6;fill-opacity:1;stroke:none;stroke-width:2;stroke-linecap:round;stroke-linejoin:round;stroke-miterlimit:4;stroke-dasharray:none;stroke-dashoffset:0;stroke-opacity:1" id="path4166" d="M 7 0 A 7 7 0 0 0 0 7 A 7 7 0 0 0 7 14 A 7 7 0 0 0 14 7 A 7 7 0 0 0 7 0 z M 7 2 A 5.0000172 5.0000172 0 0 1 12 7 A 5.0000172 5.0000172 0 0 1 7 12 A 5.0000172 5.0000172 0 0 1 2 7 A 5.0000172 5.0000172 0 0 1 7 2 z" transform="translate(0,1038.3622)"/></g></svg>