<svg xmlns="http://www.w3.org/2000/svg" xmlns:svg="http://www.w3.org/2000/svg" id="svg2" width="14" height="14" version="1.1" viewBox="0 0 14 14"><metadata id="metadata7"/><g id="layer1" transform="translate(0,-1038.3622)"><rect style="opacity:1;fill:#cf68ea;fill-opacity:1;stroke:none;stroke-width:2;stroke-linecap:square;stroke-linejoin:round;stroke-miterlimit:4;stroke-dasharray:none;stroke-dashoffset:0;stroke-opacity:1" id="rect4160" width="2" height="5" x="6" y="1042.362"/><path style="opacity:1;fill:#cf68ea;fill-opacity:1;stroke:none;stroke-width:2;stroke-linecap:square;stroke-linejoin:round;stroke-miterlimit:4;stroke-dasharray:none;stroke-dashoffset:0;stroke-opacity:1" id="path4164" d="M 9.0703125 1 A 3 3 0 0 0 7.5 1.4023438 A 3 3 0 0 0 6 4 L 8 4 A 1 1 0 0 1 9 3 A 1 1 0 0 1 10 4 L 12 4 A 3 3 0 0 0 10.5 1.4023438 A 3 3 0 0 0 9.0703125 1 z" transform="translate(0,1038.3622)"/><rect id="rect4166" width="2" height="1" x="10" y="1042.362" style="opacity:1;fill:#cf68ea;fill-opacity:1;stroke:none;stroke-width:2;stroke-linecap:square;stroke-linejoin:round;stroke-miterlimit:4;stroke-dasharray:none;stroke-dashoffset:0;stroke-opacity:1"/><path style="opacity:1;fill:#cf68ea;fill-opacity:1;stroke:none;stroke-width:2;stroke-linecap:square;stroke-linejoin:round;stroke-miterlimit:4;stroke-dasharray:none;stroke-dashoffset:0;stroke-opacity:1" id="path4170" d="M 2 10 A 3 3 0 0 0 3.5 12.597656 A 3 3 0 0 0 6.5 12.597656 A 3 3 0 0 0 8 10 L 6 10 A 1 1 0 0 1 5 11 A 1 1 0 0 1 4 10 L 2 10 z" transform="translate(0,1038.3622)"/><rect style="opacity:1;fill:#cf68ea;fill-opacity:1;stroke:none;stroke-width:2;stroke-linecap:square;stroke-linejoin:round;stroke-miterlimit:4;stroke-dasharray:none;stroke-dashoffset:0;stroke-opacity:1" id="rect4172" width="2" height="1" x="6" y="-1048.362" transform="scale(1,-1)"/><rect style="opacity:1;fill:#cf68ea;fill-opacity:1;stroke:none;stroke-width:2;stroke-linecap:square;stroke-linejoin:round;stroke-miterlimit:4;stroke-dasharray:none;stroke-dashoffset:0;stroke-opacity:1" id="rect4176" width="6" height="2" x="4" y="1044.362"/></g></svg>