<svg xmlns="http://www.w3.org/2000/svg" xmlns:svg="http://www.w3.org/2000/svg" id="svg2" width="16" height="16" version="1.1" viewBox="0 0 16 16"><metadata id="metadata7"/><g id="layer1" transform="translate(0,-1036.3622)"><path style="opacity:1;fill:#fff;fill-opacity:1;stroke:none;stroke-width:3;stroke-linecap:round;stroke-linejoin:round;stroke-miterlimit:4;stroke-dasharray:none;stroke-dashoffset:0;stroke-opacity:1" id="path4137" d="M 8 1 A 7 7 0 0 0 1 8 A 7 7 0 0 0 8 15 A 7 7 0 0 0 9.2128906 14.892578 L 6.6132812 8.5722656 A 1.50015 1.50015 0 0 1 7.984375 6.5019531 L 7.984375 6.5 A 1.50015 1.50015 0 0 1 8.5703125 6.6113281 L 14.888672 9.2109375 A 7 7 0 0 0 15 8 A 7 7 0 0 0 8 1 z M 10.755859 10.755859 L 11.279297 12.029297 A 1.50015 1.50015 0 0 1 11.759766 11.759766 A 1.50015 1.50015 0 0 1 12.029297 11.28125 L 10.755859 10.755859 z" transform="translate(0,1036.3622)"/><path style="opacity:1;fill:#ff8484;fill-opacity:1;stroke:none;stroke-width:3;stroke-linecap:round;stroke-linejoin:round;stroke-miterlimit:4;stroke-dasharray:none;stroke-dashoffset:0;stroke-opacity:1" id="circle4156" d="M 8 3 A 5.0000172 5.0000172 0 0 0 3 8 A 5.0000172 5.0000172 0 0 0 8 13 A 5.0000172 5.0000172 0 0 0 8.4257812 12.978516 L 6.6132812 8.5722656 A 1.50015 1.50015 0 0 1 7.984375 6.5019531 L 7.984375 6.5 A 1.50015 1.50015 0 0 1 8.5703125 6.6113281 L 12.978516 8.4238281 A 5.0000172 5.0000172 0 0 0 13 8 A 5.0000172 5.0000172 0 0 0 8 3 z M 10.755859 10.755859 L 11.199219 11.835938 A 5.0000172 5.0000172 0 0 0 11.837891 11.203125 L 10.755859 10.755859 z" transform="translate(0,1036.3622)"/><path style="opacity:1;fill:#e0e0e0;fill-opacity:1;stroke:none;stroke-width:1;stroke-linecap:round;stroke-linejoin:round;stroke-miterlimit:4;stroke-dasharray:none;stroke-dashoffset:0;stroke-opacity:1" id="rect4163" d="m 16,1047.6532 -8,-3.291 3.290998,8 0.947104,-2.8201 1.8836,1.8835 0.941801,-0.9418 -1.8836,-1.8835 z"/></g></svg>