<svg xmlns="http://www.w3.org/2000/svg" xmlns:svg="http://www.w3.org/2000/svg" id="svg2" width="16" height="16" version="1.1" viewBox="0 0 16 16"><metadata id="metadata7"/><g id="layer1" transform="translate(0,-1036.3622)"><path style="opacity:1;fill:#f0f0f0;fill-opacity:1;stroke:none;stroke-width:2;stroke-linecap:round;stroke-linejoin:round;stroke-miterlimit:4;stroke-dasharray:none;stroke-dashoffset:0;stroke-opacity:1" id="path4157" d="M 7 1 L 7 3 L 9 3 L 9 1 L 7 1 z M 3.7578125 2.34375 L 2.34375 3.7578125 L 3.7578125 5.171875 L 5.171875 3.7578125 L 3.7578125 2.34375 z M 12.242188 2.34375 L 10.828125 3.7578125 L 12.242188 5.171875 L 13.65625 3.7578125 L 12.242188 2.34375 z M 8 4 A 4 4 0 0 0 4 8 A 4 4 0 0 0 8 12 A 4 4 0 0 0 12 8 A 4 4 0 0 0 8 4 z M 7 5 L 9 5 L 9 7 L 9 8 L 7 8 L 7 9 L 9 9 L 9 10 L 7 10 L 6 10 L 6 8 L 6 7 L 8 7 L 8 6 L 7 6 L 7 5 z M 1 7 L 1 9 L 3 9 L 3 7 L 1 7 z M 13 7 L 13 9 L 15 9 L 15 7 L 13 7 z M 3.7578125 10.828125 L 2.34375 12.242188 L 3.7578125 13.65625 L 5.171875 12.242188 L 3.7578125 10.828125 z M 12.242188 10.828125 L 10.828125 12.242188 L 12.242188 13.65625 L 13.65625 12.242188 L 12.242188 10.828125 z M 7 13 L 7 15 L 9 15 L 9 13 L 7 13 z" transform="translate(0,1036.3622)"/><path id="path4176" d="M 7 1 L 7 3 L 9 3 L 9 1 L 7 1 z M 3.7578125 2.34375 L 2.34375 3.7578125 L 3.7578125 5.171875 L 5.171875 3.7578125 L 3.7578125 2.34375 z M 12.242188 2.34375 L 10.828125 3.7578125 L 12.242188 5.171875 L 13.65625 3.7578125 L 12.242188 2.34375 z M 8 4 A 4 4 0 0 0 4 8 A 4 4 0 0 0 8 12 A 4 4 0 0 0 12 8 A 4 4 0 0 0 8 4 z M 7 5 L 9 5 L 9 7 L 9 8 L 7 8 L 7 9 L 9 9 L 9 10 L 7 10 L 6 10 L 6 8 L 6 7 L 8 7 L 8 6 L 7 6 L 7 5 z M 1 7 L 1 9 L 3 9 L 3 7 L 1 7 z M 13 7 L 13 9 L 15 9 L 15 7 L 13 7 z M 3.7578125 10.828125 L 2.34375 12.242188 L 3.7578125 13.65625 L 5.171875 12.242188 L 3.7578125 10.828125 z M 12.242188 10.828125 L 10.828125 12.242188 L 12.242188 13.65625 L 13.65625 12.242188 L 12.242188 10.828125 z M 7 13 L 7 15 L 9 15 L 9 13 L 7 13 z" transform="translate(0,1036.3622)" style="opacity:1;fill:#000;fill-opacity:.23529412;stroke:none;stroke-width:2;stroke-linecap:round;stroke-linejoin:round;stroke-miterlimit:4;stroke-dasharray:none;stroke-dashoffset:0;stroke-opacity:1"/></g></svg>