<svg xmlns="http://www.w3.org/2000/svg" xmlns:svg="http://www.w3.org/2000/svg" id="svg2" width="16" height="16" version="1.1" viewBox="0 0 16 16"><metadata id="metadata7"/><g id="layer1" transform="translate(0,-1036.3622)"><path style="opacity:1;fill:#a5efac;fill-opacity:1;stroke:none;stroke-width:2;stroke-linecap:round;stroke-linejoin:round;stroke-miterlimit:4;stroke-dasharray:none;stroke-dashoffset:0;stroke-opacity:1" id="rect4161" d="M 2 6 A 1 1 0 0 0 1 7 L 1 14 A 1 1 0 0 0 2 15 L 14 15 A 1 1 0 0 0 15 14 L 15 7 A 1 1 0 0 0 14 6 L 2 6 z M 3 8 L 13 8 L 13 10 L 3 10 L 3 8 z M 3 11 L 13 11 L 13 13 L 3 13 L 3 11 z" transform="translate(0,1036.3622)"/><path style="opacity:1;fill:#a5efac;fill-opacity:1;stroke:none;stroke-width:2;stroke-linecap:round;stroke-linejoin:round;stroke-miterlimit:4;stroke-dasharray:none;stroke-dashoffset:0;stroke-opacity:1" id="rect4155" d="M 1 1 L 1 5 L 7 5 L 7 1 L 1 1 z M 2 2 L 6 2 L 4 4 L 2 2 z" transform="translate(0,1036.3622)"/></g></svg>