<svg xmlns="http://www.w3.org/2000/svg" xmlns:svg="http://www.w3.org/2000/svg" id="svg2" width="16" height="16" version="1.1" viewBox="0 0 16 16"><metadata id="metadata7"/><g id="layer1" transform="translate(0,-1036.3622)"><path style="opacity:1;fill:#e0e0e0;fill-opacity:.99607843;stroke:none;stroke-width:3;stroke-linecap:round;stroke-linejoin:miter;stroke-miterlimit:4;stroke-dasharray:none;stroke-dashoffset:0;stroke-opacity:1" id="path4137" d="M 11 1 A 4 4.0000024 0 0 0 7.1308594 4 L 1 4 L 1 6 L 2 6 L 2 8 L 5 8 L 5 6 L 7.1328125 6 A 4 4.0000024 0 0 0 9 8.4589844 L 9 7 L 11 7 A 2.0000174 2.0000174 0 0 1 9 5 A 2.0000174 2.0000174 0 0 1 11 3 A 2.0000174 2.0000174 0 0 1 13 5 A 2.0000174 2.0000174 0 0 1 11 7 L 14.458984 7 A 4 4.0000024 0 0 0 15 5 A 4 4.0000024 0 0 0 11 1 z" transform="translate(0,1036.3622)"/><rect style="opacity:1;fill:#e0e0e0;fill-opacity:.99607843;stroke:none;stroke-width:2;stroke-linecap:square;stroke-linejoin:round;stroke-miterlimit:4;stroke-dasharray:none;stroke-dashoffset:0;stroke-opacity:1" id="rect4156" width="2" height="6" x="11" y="1045.362"/><rect id="rect4158" width="6" height="2" x="9" y="1047.362" style="opacity:1;fill:#e0e0e0;fill-opacity:.99607843;stroke:none;stroke-width:2;stroke-linecap:square;stroke-linejoin:round;stroke-miterlimit:4;stroke-dasharray:none;stroke-dashoffset:0;stroke-opacity:1"/></g></svg>