<svg xmlns="http://www.w3.org/2000/svg" xmlns:svg="http://www.w3.org/2000/svg" id="svg2" width="16" height="16" version="1.1" viewBox="0 0 16 16"><metadata id="metadata7"/><g id="layer1" transform="translate(0,-1036.3622)"><path style="opacity:1;fill:#a5efac;fill-opacity:1;stroke:none;stroke-width:2;stroke-linecap:round;stroke-linejoin:miter;stroke-miterlimit:4;stroke-dasharray:none;stroke-dashoffset:0;stroke-opacity:1" id="rect4140" d="M 3 1 C 1.89543 1 1 1.8954 1 3 L 1 4 L 15 4 L 15 3 C 15 1.8954 14.104569 1 13 1 L 3 1 z M 12 2 L 13 2 L 13 3 L 12 3 L 12 2 z M 1 5 L 1 13 C 1 14.1046 1.89543 15 3 15 L 13 15 C 14.104569 15 15 14.1046 15 13 L 15 5 L 1 5 z M 2.5859375 8.8789062 L 4 10.292969 L 5.4140625 8.8789062 L 6.1210938 9.5859375 L 4.7070312 11 L 6.1210938 12.414062 L 5.4140625 13.121094 L 4 11.707031 L 2.5859375 13.121094 L 1.8789062 12.414062 L 3.2929688 11 L 1.8789062 9.5859375 L 2.5859375 8.8789062 z M 12.949219 8.8789062 L 13.65625 9.5859375 L 10.828125 12.414062 L 10.121094 13.121094 L 9.4140625 12.414062 L 8 11 L 8.7070312 10.292969 L 10.121094 11.707031 L 12.949219 8.8789062 z" transform="translate(0,1036.3622)"/></g></svg>