<svg xmlns="http://www.w3.org/2000/svg" xmlns:svg="http://www.w3.org/2000/svg" id="svg2" width="16" height="16" version="1.1" viewBox="0 0 16 16"><metadata id="metadata7"/><g id="layer1" transform="translate(0,-1036.3622)"><path style="opacity:1;fill:#fc9c9c;fill-opacity:.99607843;stroke:none;stroke-width:3;stroke-linecap:round;stroke-linejoin:round;stroke-miterlimit:4;stroke-dasharray:none;stroke-dashoffset:0;stroke-opacity:1" id="path4154" d="m 8,1040.3622 c -2.209139,0 -4,1.7909 -4,4 0,2.2091 1.790861,4 4,4 2.209139,0 4,-1.7909 4,-4 0,-2.2091 -1.790861,-4 -4,-4 z m 0,6.6667 c -3.5555555,1.7777 -1.7777778,0.8889 0,0 z"/><rect style="opacity:1;fill:#fc9c9c;fill-opacity:.99607843;stroke:none;stroke-width:2;stroke-linecap:round;stroke-linejoin:round;stroke-miterlimit:4;stroke-dasharray:none;stroke-dashoffset:0;stroke-opacity:1" id="rect4192" width="2" height="2" x="7" y="1037.362"/><rect id="rect4194" width="2" height="2" x="1043.362" y="-15" transform="matrix(0,1,-1,0,0,0)" style="opacity:1;fill:#fc9c9c;fill-opacity:.99607843;stroke:none;stroke-width:2;stroke-linecap:round;stroke-linejoin:round;stroke-miterlimit:4;stroke-dasharray:none;stroke-dashoffset:0;stroke-opacity:1"/><rect style="opacity:1;fill:#fc9c9c;fill-opacity:.99607843;stroke:none;stroke-width:2;stroke-linecap:round;stroke-linejoin:round;stroke-miterlimit:4;stroke-dasharray:none;stroke-dashoffset:0;stroke-opacity:1" id="rect4196" width="2" height="2" x="-9" y="-1051.362" transform="scale(-1,-1)"/><rect id="rect4198" width="2" height="2" x="-1045.362" y="1" transform="matrix(0,-1,1,0,0,0)" style="opacity:1;fill:#fc9c9c;fill-opacity:.99607843;stroke:none;stroke-width:2;stroke-linecap:round;stroke-linejoin:round;stroke-miterlimit:4;stroke-dasharray:none;stroke-dashoffset:0;stroke-opacity:1"/><rect id="rect4200" width="2" height="2" x="-733.819" y="737.132" transform="matrix(0.70710678,-0.70710678,0.70710678,0.70710678,0,0)" style="opacity:1;fill:#fc9c9c;fill-opacity:.99607843;stroke:none;stroke-width:2;stroke-linecap:round;stroke-linejoin:round;stroke-miterlimit:4;stroke-dasharray:none;stroke-dashoffset:0;stroke-opacity:1"/><rect style="opacity:1;fill:#fc9c9c;fill-opacity:.99607843;stroke:none;stroke-width:2;stroke-linecap:round;stroke-linejoin:round;stroke-miterlimit:4;stroke-dasharray:none;stroke-dashoffset:0;stroke-opacity:1" id="rect4202" width="2" height="2" x="743.132" y="725.819" transform="matrix(0.70710678,0.70710678,-0.70710678,0.70710678,0,0)"/><rect id="rect4204" width="2" height="2" x="731.819" y="-751.132" transform="matrix(-0.70710678,0.70710678,-0.70710678,-0.70710678,0,0)" style="opacity:1;fill:#fc9c9c;fill-opacity:.99607843;stroke:none;stroke-width:2;stroke-linecap:round;stroke-linejoin:round;stroke-miterlimit:4;stroke-dasharray:none;stroke-dashoffset:0;stroke-opacity:1"/><rect style="opacity:1;fill:#fc9c9c;fill-opacity:.99607843;stroke:none;stroke-width:2;stroke-linecap:round;stroke-linejoin:round;stroke-miterlimit:4;stroke-dasharray:none;stroke-dashoffset:0;stroke-opacity:1" id="rect4206" width="2" height="2" x="-745.132" y="-739.819" transform="matrix(-0.70710678,-0.70710678,0.70710678,-0.70710678,0,0)"/></g></svg>