<svg xmlns="http://www.w3.org/2000/svg" xmlns:svg="http://www.w3.org/2000/svg" id="svg2" width="16" height="16" version="1.1" viewBox="0 0 16 16"><metadata id="metadata7"/><g id="layer1" transform="translate(0,-1036.3622)"><circle style="opacity:1;fill:#a5b7f8;fill-opacity:.98823529;stroke:none;stroke-width:2;stroke-linecap:round;stroke-linejoin:round;stroke-miterlimit:4;stroke-dasharray:none;stroke-dashoffset:0;stroke-opacity:1" id="path4154" cx="3" cy="1049.362" r="2"/><path style="color:#000;font-style:normal;font-variant:normal;font-weight:400;font-stretch:normal;font-size:medium;line-height:normal;font-family:sans-serif;text-indent:0;text-align:start;text-decoration:none;text-decoration-line:none;text-decoration-style:solid;text-decoration-color:#000;letter-spacing:normal;word-spacing:normal;text-transform:none;direction:ltr;block-progression:tb;writing-mode:lr-tb;baseline-shift:baseline;text-anchor:start;white-space:normal;clip-rule:nonzero;display:inline;overflow:visible;visibility:visible;opacity:1;isolation:auto;mix-blend-mode:normal;color-interpolation:sRGB;color-interpolation-filters:linearRGB;solid-color:#000;solid-opacity:1;fill:#a5b7f8;fill-opacity:.98823529;fill-rule:evenodd;stroke:none;stroke-width:2;stroke-linecap:butt;stroke-linejoin:miter;stroke-miterlimit:4;stroke-dasharray:none;stroke-dashoffset:0;stroke-opacity:1;color-rendering:auto;image-rendering:auto;shape-rendering:auto;text-rendering:auto;enable-background:accumulate" id="path4167" d="m 12,1039.3613 c 0,2.0648 -0.492456,2.8244 -1.136719,3.2754 -0.644262,0.451 -1.7128904,0.6055 -2.9628904,0.7305 -1.25,0.125 -2.681372,0.2205 -3.9121094,1.082 C 2.7575439,1045.3107 2,1046.9261 2,1049.3613 l 2,0 c 0,-2.0648 0.4924561,-2.8224 1.1367188,-3.2734 0.6442626,-0.451 1.7128906,-0.6055 2.9628906,-0.7305 1.25,-0.125 2.6813716,-0.2205 3.9121096,-1.082 C 13.242456,1043.4139 14,1041.7965 14,1039.3613 l -2,0 z"/><path style="fill:#a5b7f9;fill-rule:evenodd;stroke:none;stroke-width:1px;stroke-linecap:butt;stroke-linejoin:miter;stroke-opacity:1;fill-opacity:.98823529" id="path4238" d="m 10,1040.3622 6,0 -3,-4 z"/></g></svg>