<svg xmlns="http://www.w3.org/2000/svg" xmlns:svg="http://www.w3.org/2000/svg" id="svg2" width="16" height="16" version="1.1" viewBox="0 0 16 16"><metadata id="metadata7"/><g id="layer1" transform="translate(0,-1036.3622)"><path style="opacity:1;fill:#fc9c9c;fill-opacity:.99607843;stroke:none;stroke-width:2;stroke-linecap:butt;stroke-linejoin:bevel;stroke-miterlimit:4;stroke-dasharray:none;stroke-dashoffset:0;stroke-opacity:.99607843" id="rect4167" d="M 5 3 A 1 1 0 0 0 4 4 L 3 7 L 1 7 L 1 11 L 2.0507812 11 C 2.2824511 9.8589301 3.2905526 9 4.5 9 C 5.7094474 9 6.717549 9.8589301 6.9492188 11 L 9.0507812 11 C 9.2824511 9.8589301 10.290553 9 11.5 9 C 12.709447 9 13.717549 9.8589301 13.949219 11 L 15 11 L 15 7 L 11 7 L 11 3 L 5 3 z M 6 4 L 10 4 L 10 7 L 6 7 L 6 4 z" transform="translate(0,1036.3622)"/><circle style="opacity:1;fill:#fc9c9c;fill-opacity:.99607843;stroke:none;stroke-width:2;stroke-linecap:butt;stroke-linejoin:bevel;stroke-miterlimit:4;stroke-dasharray:none;stroke-dashoffset:0;stroke-opacity:.99607843" id="path4154" cx="4.5" cy="1047.862" r="1.5"/><circle id="circle4165" cx="11.5" cy="1047.862" r="1.5" style="opacity:1;fill:#fc9c9c;fill-opacity:.99607843;stroke:none;stroke-width:2;stroke-linecap:butt;stroke-linejoin:bevel;stroke-miterlimit:4;stroke-dasharray:none;stroke-dashoffset:0;stroke-opacity:.99607843"/></g></svg>