<svg xmlns="http://www.w3.org/2000/svg" xmlns:svg="http://www.w3.org/2000/svg" id="svg2" width="16" height="16" version="1.1" viewBox="0 0 16 16"><metadata id="metadata7"/><g id="layer1" transform="translate(0,-1036.3622)"><path id="path4246" d="m 1,1037.3622 0,2 0,1 1,0 a 1,1 0 0 1 1,-1 l 2,0 0,6 a 1,1 0 0 1 -1,1 l 0,1 1,0 2,0 1,0 0,-1 a 1,1 0 0 1 -1,-1 l 0,-6 2,0 a 1,1 0 0 1 1,1 l 1,0 0,-1 0,-2 -4,0 -2,0 -4,0 z" style="opacity:1;fill:#e0e0e0;fill-opacity:1;stroke:none;stroke-width:2;stroke-linecap:round;stroke-linejoin:round;stroke-miterlimit:4;stroke-dasharray:none;stroke-dashoffset:0;stroke-opacity:1"/><path style="opacity:1;fill:#84c2ff;fill-opacity:1;stroke:none;stroke-width:2;stroke-linecap:round;stroke-linejoin:round;stroke-miterlimit:4;stroke-dasharray:none;stroke-dashoffset:0;stroke-opacity:1" id="rect4177" d="M 4 5 L 4 7 L 4 8 L 5 8 A 1 1 0 0 1 6 7 L 8 7 L 8 13 A 1 1 0 0 1 7 14 L 7 15 L 8 15 L 10 15 L 11 15 L 11 14 A 1 1 0 0 1 10 13 L 10 7 L 12 7 A 1 1 0 0 1 13 8 L 14 8 L 14 7 L 14 5 L 10 5 L 8 5 L 4 5 z" transform="translate(0,1036.3622)"/></g></svg>